<svg xmlns="http://www.w3.org/2000/svg" viewBox="0 0 1000 1000" width="1000" height="1000" role="img" aria-hidden="true">
  <defs>
    <linearGradient id="base-square-aperture-75" x1="0" y1="0" x2="1" y2="1">
      <stop offset="0" stop-color="#171516"/>
      <stop offset="0.55" stop-color="#0C0B0C"/>
      <stop offset="1" stop-color="#050505"/>
    </linearGradient>
    <radialGradient id="glow-square-aperture-75" cx="0.690" cy="0.370" r="0.78">
      <stop offset="0" stop-color="#FFC107" stop-opacity="0.304"/>
      <stop offset="0.55" stop-color="#FFC107" stop-opacity="0.085"/>
      <stop offset="1" stop-color="#FFC107" stop-opacity="0"/>
    </radialGradient>
    <pattern id="rule-square-aperture-75" width="34" height="34" patternUnits="userSpaceOnUse" patternTransform="rotate(-15)">
      <line x1="0" y1="0" x2="0" y2="34" stroke="#ffffff" stroke-opacity="0.05" stroke-width="1"/>
    </pattern>
    <linearGradient id="fade-square-aperture-75" x1="0" y1="0" x2="0" y2="1">
      <stop offset="0" stop-color="#000" stop-opacity="0"/>
      <stop offset="1" stop-color="#000" stop-opacity="0.45"/>
    </linearGradient>
  </defs>

  <rect width="1000" height="1000" fill="url(#base-square-aperture-75)"/>
  <rect width="1000" height="1000" fill="url(#glow-square-aperture-75)"/>
  <rect width="1000" height="1000" fill="url(#rule-square-aperture-75)"/>
  <g transform="translate(290.0 290.0) scale(17.5000)"
     fill="none" stroke="#ffffff" stroke-opacity="0.16" stroke-width="1.1"
     stroke-linecap="round" stroke-linejoin="round">
    <path d="M12 22a10 10 0 1 0 0-20 10 10 0 0 0 0 20Z M12 18a6 6 0 1 0 0-12 6 6 0 0 0 0 12Z M12 14.5a2.5 2.5 0 1 0 0-5 2.5 2.5 0 0 0 0 5Z M8.6 6.2a7 7 0 0 0-2.4 2.4"/>
  </g>
  <rect width="1000" height="1000" fill="url(#fade-square-aperture-75)"/>
</svg>
