<svg xmlns="http://www.w3.org/2000/svg" viewBox="0 0 1000 1000" width="1000" height="1000" role="img" aria-hidden="true">
  <defs>
    <linearGradient id="base-square-drone-95" x1="0" y1="0" x2="1" y2="1">
      <stop offset="0" stop-color="#171516"/>
      <stop offset="0.55" stop-color="#0C0B0C"/>
      <stop offset="1" stop-color="#050505"/>
    </linearGradient>
    <radialGradient id="glow-square-drone-95" cx="0.650" cy="0.470" r="0.78">
      <stop offset="0" stop-color="#CF2030" stop-opacity="0.304"/>
      <stop offset="0.55" stop-color="#CF2030" stop-opacity="0.085"/>
      <stop offset="1" stop-color="#CF2030" stop-opacity="0"/>
    </radialGradient>
    <pattern id="rule-square-drone-95" width="34" height="34" patternUnits="userSpaceOnUse" patternTransform="rotate(-19)">
      <line x1="0" y1="0" x2="0" y2="34" stroke="#ffffff" stroke-opacity="0.05" stroke-width="1"/>
    </pattern>
    <linearGradient id="fade-square-drone-95" x1="0" y1="0" x2="0" y2="1">
      <stop offset="0" stop-color="#000" stop-opacity="0"/>
      <stop offset="1" stop-color="#000" stop-opacity="0.45"/>
    </linearGradient>
  </defs>

  <rect width="1000" height="1000" fill="url(#base-square-drone-95)"/>
  <rect width="1000" height="1000" fill="url(#glow-square-drone-95)"/>
  <rect width="1000" height="1000" fill="url(#rule-square-drone-95)"/>
  <g transform="translate(290.0 290.0) scale(17.5000)"
     fill="none" stroke="#ffffff" stroke-opacity="0.16" stroke-width="1.1"
     stroke-linecap="round" stroke-linejoin="round">
    <path d="M12 9h0a3 3 0 0 1 3 3v0a3 3 0 0 1-3 3h0a3 3 0 0 1-3-3v0a3 3 0 0 1 3-3Z M9 12 4 7 M15 12l5-5 M9 12l-5 5 M15 12l5 5"/>
  </g>
  <rect width="1000" height="1000" fill="url(#fade-square-drone-95)"/>
</svg>
